# xmcd
#
# Track frame offsets:
#	150
#	11585
#	21793
#	33681
#	43250
#	52766
#	61677
#	73574
#	83094
#	93604
#	104305
#	115241
#	128240
#	138572
#	147902
#	159145
#	171205
#	183612
#	194754
#	203951
#
# Disc length: 2863 seconds
# Revision: 0
# Processed by: cddbd v1.5.2PL0 Copyright (c) Steve Scherf et al.
# Submitted via: dBpowerAMP V12.0
#
DISCID=1d0b2d14
DTITLE=Earl King - Come On
DYEAR=1962
DGENRE=Blues
TTITLE0=Come On Part 1
TTITLE1=Mama And Papa
TTITLE2=Don't You Lose It
TTITLE3=Baby You Can Get Your Gun
TTITLE4=Little Girl
TTITLE5=Love Me Now
TTITLE6=Trick Bag
TTITLE7=We Are Just Good Friends
TTITLE8=Darling Honey Angel Child
TTITLE9=Don't Cry My Friend
TTITLE10=I Can't Help Myself
TTITLE11=The Things That I Used To Do
TTITLE12=I'm Your Best Bet Baby
TTITLE13=You Better Know
TTITLE14=What Can I Do
TTITLE15=Greatfully
TTITLE16=Everybody Got To Cry
TTITLE17=Always A First Time
TTITLE18=til I Say Well Done
TTITLE19=Those Lonely Lonely Nights
EXTD=
EXTT0=
EXTT1=
EXTT2=
EXTT3=
EXTT4=
EXTT5=
EXTT6=
EXTT7=
EXTT8=
EXTT9=
EXTT10=
EXTT11=
EXTT12=
EXTT13=
EXTT14=
EXTT15=
EXTT16=
EXTT17=
EXTT18=
EXTT19=
PLAYORDER=
